<svg xmlns="http://www.w3.org/2000/svg" style="display: none;">

<!--    width="68" height="160"-->
    <symbol id="soundbook-icon" viewBox="0 0 68 160"><path d="M36.7 154.9C29.2 158.4 21.8 154.5 22.1 154.2 23 154.2 32.7 155.4 33.1 145.6 33.1 136.5 23.9 136.1 21.7 136.1 19.9 136.1 11 136.1 11 144.7 11.1 155.6 27.2 159.5 29.7 158.8 53.4 158.8 47.5 133.8 47.5 129.5 45.6 130.2 45.2 130.3 43.3 130.7 45.9 147.8 43.4 151.7 36.7 154.9Z"/><path d="M29.5 45.8C22.9 28.2 27.4 9.4 34.9 8.1 42.8 6.7 42.6 21.6 42.5 22.2 42.1 39 30.3 48.7 24 55.2 21.6 57.7-0.2 75.1 1.1 94.8 2.9 123.2 28.4 129.2 35.7 129.2 51.4 129.2 67.4 116.6 67 98.6 66.5 81.5 50 75.7 38.7 78.4 38.7 78.4 35.7 64.7 35.7 64.7 33.5 67 30.5 69.4 30.5 69.4 30.5 69.4 33.1 80.1 33.1 80.1 24 83.8 19.2 91.8 18.4 99.5 17.9 104.9 20.4 111.7 25.5 114.3 18.4 106.3 22.2 94 35.7 90.2 39.2 103.6 42 123 42 123 42 123 44.5 122.6 46.3 121.5 46.3 121.5 41.3 89.2 41.3 89.2 48.7 88.6 60.7 93.9 60.3 104.2 59.9 114.9 51.5 126.6 34.9 126.1 19.6 125.6 6.2 114.3 6.2 99.5 6.2 81.4 26.3 70.4 32.6 64.2 41.4 55.5 48.5 45.3 48.6 27.9 48.7 17.9 44.1 1 34 1 25 1 20.2 17 20.4 27.9 20.6 42.4 24.5 51 24.5 51 24.5 51 27.4 48.3 29.5 45.8Z"/></symbol> 

<!--    width="143" height="162"-->
    <symbol id="minebomber-icon" viewBox="0 0 143 162" style="stroke:#fff"><path d="M67 22.7C65.9 18.5 68.5 14 72.7 12.9L115.3 1.1C119.5 0 123.9 2.5 125 6.7L136.1 49.3C137.3 53.5 134.7 58 130.4 59.1L87.9 70.9C83.6 72 79.3 69.5 78.1 65.3L67 22.7Z"/><path d="M0.3 40.9C-0.9 36.6 1.7 32.2 6 31L48.5 19.3C52.8 18.1 57.1 20.6 58.3 24.9L69.4 67.4C70.5 71.7 67.9 76.1 63.7 77.3L21.1 89C16.9 90.2 12.5 87.7 11.4 83.4L0.3 40.9Z"/><path d="M0.3 110.9C-0.9 106.6 1.7 102.2 6 101L48.5 89.3C52.8 88.1 57.1 90.6 58.3 94.9L69.4 137.4C70.5 141.7 67.9 146.1 63.7 147.3L21.1 159C16.9 160.2 12.5 157.7 11.4 153.4L0.3 110.9Z"/><g fill="none" stroke-width="2"><path d="M86.7 91.5C78.5 96.2 75 102.1 75 112.6 75 123.2 84.3 135 98.3 135 112.3 135 121.7 123.2 121.7 112.6 121.7 102.1 118.2 96.2 108.8 91.5 104.2 97.5 91.3 97.4 86.7 91.5Z"/><path d="M98.3 83.2C98.3 83.2 98.3 75 105.3 75 112.3 75 113.5 82.1 113.5 82.1 113.5 82.1 114.7 89.1 119.3 89.1 124 89.1 126.3 86.8 126.3 86.8"/><polygon points="125.4 86.8 122.8 85.6 125.4 84.4 121.7 78.5 127.5 82.1 128.7 79.7 129.8 82.1 136.8 78.5 132.2 84.4 134.5 85.6 132.2 86.8 136.8 92.6 129.8 89.1 128.7 91.5 127.5 89.1 121.7 92.6"/><path d="M86.7 83.3C89.3 89.5 106.2 89.5 108.8 83.3 106.2 77.6 89.3 77.6 86.7 83.3Z"/><path d="M86.7 83.2L86.7 91.5"/><path d="M108.8 83.2L108.8 91.5"/><g stroke-width="3"><path d="M76.7 129.3C76.7 129.3 77.5 132.3 78.5 136L78.6 136.4C79.6 140.1 83.4 142.3 87.1 141.3L96.2 138.9"/><path d="M70.7 106.3C70.7 106.3 69.8 102.9 68.7 98.6L67.2 92.8C66.1 88.6 68.7 84.2 72.9 83L83.5 80.1"/><path d="M130 94.9L136.5 119.3C137.6 123.5 135.1 128 130.8 129.2L115.2 133.6"/><path d="M110.4 72.7C110.4 72.7 111.7 72.3 113.4 71.9L115.5 71.3C121 69.9 124.5 73.7 125.4 77.4"/></g></g></symbol>
    
<!--    width="192" height="182"-->
    <symbol id="slider-icon" viewBox="1 0 192 182" style="fill:none;stroke:#fff;stroke-width:2"><circle cx="121.5" cy="58.5" r="8.5"/><circle cx="95.5" cy="174" r="5"/><path d="M58.3 93.4L79.3 67.7C81.2 64.8 84.1 64.8 86 67.7L108.9 99.1 122.3 85.8C123.3 84.8 125.2 83.9 127.1 85.8L135.7 95.3"/><g stroke-width="3"><path d="M37.9 13.7L27.2 11.5C25.6 11.2 22.5 12.3 22.5 16.9L22.5 144.8C22.5 146.4 23.2 150.4 27.6 149.5L37.9 147.3"/><path d="M156.7 14.6L167.4 12.4C169 12.1 172.1 13.2 172.1 17.8L172.1 145.7C172.1 147.3 171.4 151.3 167 150.4L156.7 148.2"/></g><path d="M13.9 24.3L8.6 24.3C4.9 24.3 2.5 26.7 2.5 30.5L2.5 133.4C2.5 136.3 4.9 138.6 7.7 138.6L13.9 138.6"/><path d="M180.5 23.8L185.8 23.8C189.6 23.8 192 26.2 192 30L192 132.9C192 135.9 189.6 138.2 186.7 138.2L180.5 138.2"/><g fill="#fff" stroke-width="0"><circle cx="115.5" cy="174.4" r="3"/><circle cx="132.8" cy="174" r="3"/><circle cx="76.2" cy="174" r="3"/><circle cx="58.3" cy="174" r="3"/></g><path d="M54 2.5L141 2.5C144 2.5 147.5 6 147.5 9L147.5 152C147.5 155 144 158.5 141 158.5L54 158.5C51 158.5 47.5 155 47.5 152L47.5 9C47.5 6 51 2.5 54 2.5Z" style="stroke-width:5"/></symbol>
    
    
    
</svg>