<svg style="display: none;">

<!--    width="68" height="160"-->
    <symbol id="soundbook-icon" viewBox="0 0 68 160"><path d="M36.7 154.9C29.2 158.4 21.8 154.5 22.1 154.2 23 154.2 32.7 155.4 33.1 145.6 33.1 136.5 23.9 136.1 21.7 136.1 19.9 136.1 11 136.1 11 144.7 11.1 155.6 27.2 159.5 29.7 158.8 53.4 158.8 47.5 133.8 47.5 129.5 45.6 130.2 45.2 130.3 43.3 130.7 45.9 147.8 43.4 151.7 36.7 154.9Z"/><path d="M29.5 45.8C22.9 28.2 27.4 9.4 34.9 8.1 42.8 6.7 42.6 21.6 42.5 22.2 42.1 39 30.3 48.7 24 55.2 21.6 57.7-0.2 75.1 1.1 94.8 2.9 123.2 28.4 129.2 35.7 129.2 51.4 129.2 67.4 116.6 67 98.6 66.5 81.5 50 75.7 38.7 78.4 38.7 78.4 35.7 64.7 35.7 64.7 33.5 67 30.5 69.4 30.5 69.4 30.5 69.4 33.1 80.1 33.1 80.1 24 83.8 19.2 91.8 18.4 99.5 17.9 104.9 20.4 111.7 25.5 114.3 18.4 106.3 22.2 94 35.7 90.2 39.2 103.6 42 123 42 123 42 123 44.5 122.6 46.3 121.5 46.3 121.5 41.3 89.2 41.3 89.2 48.7 88.6 60.7 93.9 60.3 104.2 59.9 114.9 51.5 126.6 34.9 126.1 19.6 125.6 6.2 114.3 6.2 99.5 6.2 81.4 26.3 70.4 32.6 64.2 41.4 55.5 48.5 45.3 48.6 27.9 48.7 17.9 44.1 1 34 1 25 1 20.2 17 20.4 27.9 20.6 42.4 24.5 51 24.5 51 24.5 51 27.4 48.3 29.5 45.8Z"/></symbol> 

<!--    width="143" height="162"-->
    <symbol id="minebomber-icon" viewBox="0 0 143 162" style="stroke:#fff"><path d="M67 22.7C65.9 18.5 68.5 14 72.7 12.9L115.3 1.1C119.5 0 123.9 2.5 125 6.7L136.1 49.3C137.3 53.5 134.7 58 130.4 59.1L87.9 70.9C83.6 72 79.3 69.5 78.1 65.3L67 22.7Z"/><path d="M0.3 40.9C-0.9 36.6 1.7 32.2 6 31L48.5 19.3C52.8 18.1 57.1 20.6 58.3 24.9L69.4 67.4C70.5 71.7 67.9 76.1 63.7 77.3L21.1 89C16.9 90.2 12.5 87.7 11.4 83.4L0.3 40.9Z"/><path d="M0.3 110.9C-0.9 106.6 1.7 102.2 6 101L48.5 89.3C52.8 88.1 57.1 90.6 58.3 94.9L69.4 137.4C70.5 141.7 67.9 146.1 63.7 147.3L21.1 159C16.9 160.2 12.5 157.7 11.4 153.4L0.3 110.9Z"/><g fill="none" stroke-width="2"><path d="M86.7 91.5C78.5 96.2 75 102.1 75 112.6 75 123.2 84.3 135 98.3 135 112.3 135 121.7 123.2 121.7 112.6 121.7 102.1 118.2 96.2 108.8 91.5 104.2 97.5 91.3 97.4 86.7 91.5Z"/><path d="M98.3 83.2C98.3 83.2 98.3 75 105.3 75 112.3 75 113.5 82.1 113.5 82.1 113.5 82.1 114.7 89.1 119.3 89.1 124 89.1 126.3 86.8 126.3 86.8"/><polygon points="125.4 86.8 122.8 85.6 125.4 84.4 121.7 78.5 127.5 82.1 128.7 79.7 129.8 82.1 136.8 78.5 132.2 84.4 134.5 85.6 132.2 86.8 136.8 92.6 129.8 89.1 128.7 91.5 127.5 89.1 121.7 92.6"/><path d="M86.7 83.3C89.3 89.5 106.2 89.5 108.8 83.3 106.2 77.6 89.3 77.6 86.7 83.3Z"/><path d="M86.7 83.2L86.7 91.5"/><path d="M108.8 83.2L108.8 91.5"/><g stroke-width="3"><path d="M76.7 129.3C76.7 129.3 77.5 132.3 78.5 136L78.6 136.4C79.6 140.1 83.4 142.3 87.1 141.3L96.2 138.9"/><path d="M70.7 106.3C70.7 106.3 69.8 102.9 68.7 98.6L67.2 92.8C66.1 88.6 68.7 84.2 72.9 83L83.5 80.1"/><path d="M130 94.9L136.5 119.3C137.6 123.5 135.1 128 130.8 129.2L115.2 133.6"/><path d="M110.4 72.7C110.4 72.7 111.7 72.3 113.4 71.9L115.5 71.3C121 69.9 124.5 73.7 125.4 77.4"/></g></g></symbol>
    
<!--    width="192" height="182"-->
    <symbol id="slider-icon" viewBox="1 0 192 182" style="fill:none;stroke:#fff;stroke-width:2"><circle cx="121.5" cy="58.5" r="8.5"/><circle cx="95.5" cy="174" r="5"/><path d="M58.3 93.4L79.3 67.7C81.2 64.8 84.1 64.8 86 67.7L108.9 99.1 122.3 85.8C123.3 84.8 125.2 83.9 127.1 85.8L135.7 95.3"/><g stroke-width="3"><path d="M37.9 13.7L27.2 11.5C25.6 11.2 22.5 12.3 22.5 16.9L22.5 144.8C22.5 146.4 23.2 150.4 27.6 149.5L37.9 147.3"/><path d="M156.7 14.6L167.4 12.4C169 12.1 172.1 13.2 172.1 17.8L172.1 145.7C172.1 147.3 171.4 151.3 167 150.4L156.7 148.2"/></g><path d="M13.9 24.3L8.6 24.3C4.9 24.3 2.5 26.7 2.5 30.5L2.5 133.4C2.5 136.3 4.9 138.6 7.7 138.6L13.9 138.6"/><path d="M180.5 23.8L185.8 23.8C189.6 23.8 192 26.2 192 30L192 132.9C192 135.9 189.6 138.2 186.7 138.2L180.5 138.2"/><g fill="#fff" stroke-width="0"><circle cx="115.5" cy="174.4" r="3"/><circle cx="132.8" cy="174" r="3"/><circle cx="76.2" cy="174" r="3"/><circle cx="58.3" cy="174" r="3"/></g><path d="M54 2.5L141 2.5C144 2.5 147.5 6 147.5 9L147.5 152C147.5 155 144 158.5 141 158.5L54 158.5C51 158.5 47.5 155 47.5 152L47.5 9C47.5 6 51 2.5 54 2.5Z" style="stroke-width:5"/></symbol>
    
<!--    width="125" height="114"-->
    <symbol id="rssreader-icon" viewBox="0 0 125 114">
        <text x="2" y="108" font-family="Helvetica" letter-spacing="29" font-weight="bold">RSS</text><circle cx="10" cy="70" r="10"/><path d="M43 47C43 43.1 46.1 40 50 40L56 40C59.9 40 63 43.1 63 47L63 73C63 76.9 59.9 80 56 80L50 80C46.1 80 43 76.9 43 73L43 47Z"/><path d="M85 7C85 3.1 88.1 0 92 0L98 0C101.9 0 105 3.1 105 7L105 73C105 76.9 101.9 80 98 80L92 80C88.1 80 85 76.9 85 73L85 7Z"/>
    </symbol>
    
<!--    width="108" height="186"-->
    <symbol id="handover-icon" viewBox="0 -2 108 186" style="fill-rule:evenodd"><path d="M54 123.7C35 123.7 19 128.9 19 139.2 19 149.5 35 158.9 54 158.9 73 158.9 89 147.8 89 139.2 89 130.6 73 123.7 54 123.7ZM54 126.3C38.5 126.3 24 132 24 138.3 24 144.6 38.5 151.2 54 151.2 69.5 151.2 84 144.4 84 138.3 84 132.2 69.5 126.3 54 126.3Z"/><path d="M54 101.3C43.5 101.3 34 105.7 34 110.8 34 115.8 42.5 122 54 122 65.5 122 74 115.6 74 110.8 74 106 64.5 101.3 54 101.3ZM54 103.9C45.5 103.9 38 106.6 38 109.9 38 113.3 45.5 116.8 54 116.8 62.5 116.8 70 113.1 70 109.9 70 106.8 62.5 103.9 54 103.9Z"/><path d="M54 95.3C48.5 95.3 43 92.1 43 89.3 43 86.5 48.5 83.3 54 83.3 59.5 83.3 65 86.1 65 89.3 65 92.5 59.5 95.3 54 95.3ZM54 85C49.5 85 46 86.7 46 88.4 46 90.2 49.5 91.9 54 91.9 58.5 91.9 62 90.2 62 88.4 62 86.7 58.5 85 54 85Z"/><path d="M5 149.5C32 120.2 47 82.4 54 46.3 52 79 35 122.8 13 154.6L5 149.5Z"/><path d="M95 154.6C81.3 134.8 56.8 89.7 54 46.3 62.8 92.4 82.9 127.9 102.9 149.5L95 154.6Z"/><path d="M54 183L62 177.8C58 140 54 46.3 54 46.3 54 46.3 50 140 46 177.8L54 183Z"/><ellipse cx="54" cy="24.7" rx="8" ry="6.7"/><g fill="none" stroke-width="3" stroke="#FFF"><path d="M36.1 15.4C30.9 25.7 36.3 34 44 38"/><path d="M71.9 15.4C77.1 25.7 71.8 34 64 38"/><g stroke-width="5"><path d="M25.2 10.1C15.8 25.2 23.3 41.1 37.1 48.4"/><path d="M82.9 10.1C92.3 25.2 84.8 41.1 71 48.4"/></g><g stroke-width="7"><path d="M10.6 2.6C-1 19.4 1.7 47.2 28.5 60.9"/><path d="M97 2.6C108.6 19.4 105.9 47.2 79.1 60.9"/></g></g></symbol>
    
<!--    width="204" height="165"-->
    <symbol id="landing-icon" viewBox="-2 -2 204 165" style="fill-rule:evenodd;fill:none"><g fill="#fff"><path d="M5 0C2.2 0 0 2.2 0 5 0 5 0 4 0 10L200 10 200 5C200 2.2 197.8 0 195 0L5 0ZM9.5 7C10.9 7 12 5.9 12 4.5 12 3.1 10.9 2 9.5 2 8.1 2 7 3.1 7 4.5 7 5.9 8.1 7 9.5 7ZM17.5 7C18.9 7 20 5.9 20 4.5 20 3.1 18.9 2 17.5 2 16.1 2 15 3.1 15 4.5 15 5.9 16.1 7 17.5 7ZM25.5 7C26.9 7 28 5.9 28 4.5 28 3.1 26.9 2 25.5 2 24.1 2 23 3.1 23 4.5 23 5.9 24.1 7 25.5 7Z"/><path d="M171 19C171 17.3 172.3 16 174 16L183 16C184.7 16 186 17.3 186 19L186 19C186 20.7 184.7 22 183 22L174 22C172.3 22 171 20.7 171 19L171 19Z"/><path d="M148 19C148 17.3 149.3 16 151 16L160 16C161.7 16 163 17.3 163 19L163 19C163 20.7 161.7 22 160 22L151 22C149.3 22 148 20.7 148 19L148 19Z"/><path d="M125 19C125 17.3 126.3 16 128 16L137 16C138.7 16 140 17.3 140 19L140 19C140 20.7 138.7 22 137 22L128 22C126.3 22 125 20.7 125 19L125 19Z"/><path d="M102 19C102 17.3 103.3 16 105 16L114 16C115.7 16 117 17.3 117 19L117 19C117 20.7 115.7 22 114 22L105 22C103.3 22 102 20.7 102 19L102 19Z"/><path d="M102 19C102 17.3 103.3 16 105 16L114 16C115.7 16 117 17.3 117 19L117 19C117 20.7 115.7 22 114 22L105 22C103.3 22 102 20.7 102 19L102 19Z"/></g><g stroke-width="2" stroke="#FFF"><path d="M0 154C0 157.9 3.1 161 7 161L193 161C196.9 161 200 157.9 200 154L200 7C200 3.1 196.9 0 193 0L7 0C3.1 0 0 3.1 0 7L0 154Z" style="stroke-width:3"/><polygon points="15 28 15 90 185 90 185 28"/><circle cx="126.5" cy="49.5" r="8.5"/><path d="M61 78.9L82 53.1C83.9 50.3 86.8 50.3 88.7 53.1L111.6 84.6 125 71.2C125.9 70.3 127.8 69.3 129.7 71.2L138.3 80.8"/><circle cx="40" cy="117" r="17"/><circle cx="100" cy="117" r="17"/><circle cx="160" cy="117" r="17"/><path d="M30 150L50 150"/><path d="M90 151L110 151"/><path d="M150 151L170 151"/><path d="M25 142L55 142"/><path d="M85 143L115 143"/><path d="M145 143L175 143"/></g></symbol>
    
<!--    width="150" height="134"-->
    <symbol id="blog-icon" viewBox="-2 -2 150 134"><circle cx="49" cy="68" r="7"/><circle cx="68" cy="68" r="7"/><circle cx="30" cy="68" r="7"/><polygon points="91.8 55.5 95.5 58.1 109.3 50 91.8 38.9"/><g fill="none" stroke="#fff" stroke-width="3"><path d="M87.2 67.6L87.2 35.8 106 3.3C108.8-0.2 111.6-1.5 123.5 4.9 135.4 11.3 135.6 16.7 133.5 20L115.2 52.6 87.2 67.6Z"/><path d="M98.8 15.7C91.5 13.1 80.8 12.1 73.1 12.1 32.9 12.1 0.5 34 0.5 60.7 0.5 87.4 32.9 109.3 73.1 109.3L73.6 109.3C74 115.2 67.3 124.9 57.6 129.7 95.8 129.7 113.2 101.1 113.2 101.1 132.6 92.3 145.1 77.7 145.1 60.7 146.1 49.5 138 37 128.8 28.7" style="stroke-width:4"/></g></symbol>
    
<!--    width="208" height="179"-->
    <symbol id="mototrbo-icon" viewBox="0 0 208 179" style="fill-rule:evenodd;fill:#fff"><path d="M5.2 61.2C6.9 61.2 6.9 122.2 5.2 122.2 3.5 122.2 0 115.4 0 90.4 0 65.5 3.5 61.2 5.2 61.2Z"/><path d="M31 93.9C31 79.3 33.5 50.8 33.5 50.8 34 43.7 28.7 38 21.6 38L19.8 38C12.7 38 7.4 43.7 7.9 50.8 7.9 50.8 10.3 79.3 10.3 93.9 10.3 108.5 9.2 130 9.2 130 8.9 136.6 14 142 20.6 142L20.8 142C27.4 142 32.5 136.6 32.2 130 32.2 130 31 108.5 31 93.9Z"/><path d="M34.5 91.7C34.5 74.9 35.5 58.7 35.5 58.7 35.9 51.5 42 45.5 49.2 45.3 49.2 45.3 59 44.9 65.5 44.9 72 44.9 84.4 45.3 84.4 45.3 91.6 45.6 97.9 51.5 98.4 58.7 98.4 58.7 100 75.1 100 91.7 100 108.4 98.5 123 98.5 123 97.9 130.2 91.6 136.4 84.4 136.8 84.4 136.8 72.2 137.7 65.5 137.7 59.3 137.7 49.2 136.9 49.2 136.9 42 136.4 35.9 130.2 35.5 123 35.5 123 34.5 108.5 34.5 91.7ZM67.2 105.9C69.6 105.9 71.6 104.4 71.6 102.5 71.6 100.6 69.6 99 67.2 99 64.9 99 62.9 100.6 62.9 102.5 62.9 104.4 64.9 105.9 67.2 105.9ZM55.2 105.9C57.6 105.9 59.5 104.4 59.5 102.5 59.5 100.6 57.6 99 55.2 99 52.8 99 50.9 100.6 50.9 102.5 50.9 104.4 52.8 105.9 55.2 105.9ZM55.2 117.9C57.6 117.9 59.5 116.4 59.5 114.5 59.5 112.6 57.6 111.1 55.2 111.1 52.8 111.1 50.9 112.6 50.9 114.5 50.9 116.4 52.8 117.9 55.2 117.9ZM45.7 54.3L88.8 54.3 88.8 76.7 45.7 76.7 45.7 54.3ZM77.6 87.9C77.6 88.7 76.7 92.1 69 92.1L69 83.6C76.7 83.6 77.6 87 77.6 87.9ZM56.9 87.9C56.9 88.7 57.8 92.1 65.5 92.1L65.5 83.6C57.8 83.6 56.9 87 56.9 87.9ZM67.2 117.9C69.6 117.9 71.6 116.4 71.6 114.5 71.6 112.6 69.6 111.1 67.2 111.1 64.9 111.1 62.9 112.6 62.9 114.5 62.9 116.4 64.9 117.9 67.2 117.9ZM79.3 105.9C81.7 105.9 83.6 104.4 83.6 102.5 83.6 100.6 81.7 99 79.3 99 76.9 99 75 100.6 75 102.5 75 104.4 76.9 105.9 79.3 105.9ZM79.3 117.9C81.7 117.9 83.6 116.4 83.6 114.5 83.6 112.6 81.7 111.1 79.3 111.1 76.9 111.1 75 112.6 75 114.5 75 116.4 76.9 117.9 79.3 117.9ZM55.2 130C57.6 130 59.5 128.4 59.5 126.5 59.5 124.6 57.6 123.1 55.2 123.1 52.8 123.1 50.9 124.6 50.9 126.5 50.9 128.4 52.8 130 55.2 130ZM67.2 130C69.6 130 71.6 128.4 71.6 126.5 71.6 124.6 69.6 123.1 67.2 123.1 64.9 123.1 62.9 124.6 62.9 126.5 62.9 128.4 64.9 130 67.2 130ZM79.3 130C81.7 130 83.6 128.4 83.6 126.5 83.6 124.6 81.7 123.1 79.3 123.1 76.9 123.1 75 124.6 75 126.5 75 128.4 76.9 130 79.3 130Z"/><path d="M170 142C166.2 142 163.1 138.9 163.1 135L163.1 110.4C163.1 108.7 161.9 106.6 160.9 105.9L161.7 106.5C161.3 106.2 160.9 105.5 160.9 104.9L160.9 89.6C160.9 89 160.6 88.3 160.2 87.9L160.1 87.8C159.4 87.1 159.4 85.8 160.1 85L160.2 85C160.6 84.6 160.9 83.8 160.9 83.3L160.9 63.2C160.9 62.1 160.2 60.6 159.3 59.9L158.8 59.6C158.4 59.3 158 58.6 158 58L158 51.3C158 50.8 158.4 50.2 159 50.1L164.5 48.9 164.5 40.1C164.5 39 165.4 38.1 166.5 38.1L171.1 38.1C172.3 38.1 173.2 39 173.2 40.1L173.2 48.2 173.5 48.2C175.7 48.2 177.5 46.4 177.5 44.2L177.5 35C177.5 33.9 178.4 33 179.5 33L182.7 33C183.8 33 184.7 33.9 184.7 35L184.7 44.2C184.7 46.4 186.5 48.4 188.7 48.7L189.8 48.9 190.2 3C190.2 1.3 191.6 0 193.2 0L195.3 0C196.9 0 198.3 1.3 198.3 3L198.4 48.9 203.1 48.1C205.3 47.7 207.1 49.2 207 51.4L206.4 84.6C206.4 86.8 204.6 88.6 202.4 88.6L202 88.6 202 135C202 138.9 198.9 142 195 142L170 142ZM168.8 62.2C168.8 60.8 170 59.7 171.4 59.7L193.7 59.7C195.1 59.7 196.3 60.8 196.3 62.2 196.3 63.6 195.1 64.8 193.7 64.8L171.4 64.8C170 64.8 168.8 63.6 168.8 62.2ZM168.8 69.5C168.8 68.1 170 66.9 171.4 66.9L193.7 66.9C195.1 66.9 196.3 68.1 196.3 69.5 196.3 70.9 195.1 72 193.7 72L171.4 72C170 72 168.8 70.9 168.8 69.5ZM168.8 76.7C168.8 75.3 170 74.2 171.4 74.2L193.7 74.2C195.1 74.2 196.3 75.3 196.3 76.7 196.3 78.1 195.1 79.2 193.7 79.2L171.4 79.2C170 79.2 168.8 78.1 168.8 76.7ZM176.8 111.1C176.8 109.4 178.1 108.1 179.8 108.1L185.3 108.1C187 108.1 188.3 109.4 188.3 111.1L188.3 115.9C188.3 117.6 187 118.9 185.3 118.9L179.8 118.9C178.1 118.9 176.8 117.6 176.8 115.9L176.8 111.1ZM168.8 115.1C168.8 114 169.7 113.1 170.8 113.1L172.6 113.1C173.7 113.1 174.6 114 174.6 115.1L174.6 116.9C174.6 118 173.7 118.9 172.6 118.9L170.8 118.9C169.7 118.9 168.8 118 168.8 116.9L168.8 115.1ZM168.8 109.9C168.8 108.9 169.6 108.1 170.6 108.1L172.8 108.1C173.8 108.1 174.6 108.9 174.6 109.9 174.6 110.9 173.8 111.7 172.8 111.7L170.6 111.7C169.6 111.7 168.8 110.9 168.8 109.9ZM190.5 109.9C190.5 108.9 191.3 108.1 192.3 108.1L194.5 108.1C195.5 108.1 196.3 108.9 196.3 109.9 196.3 110.9 195.5 111.7 194.5 111.7L192.3 111.7C191.3 111.7 190.5 110.9 190.5 109.9ZM178.9 122.2C178.9 121.2 179.7 120.3 180.7 120.3L184.3 120.3C185.3 120.3 186.2 121.1 186.2 122.2 186.2 123.1 185.4 124 184.3 124L180.7 124C179.7 124 178.9 123.2 178.9 122.2ZM178.9 127.2C178.9 126.2 179.7 125.4 180.7 125.4L184.3 125.4C185.3 125.4 186.2 126.2 186.2 127.2 186.2 128.2 185.4 129 184.3 129L180.7 129C179.7 129 178.9 128.2 178.9 127.2ZM178.9 132.3C178.9 131.3 179.7 130.5 180.7 130.5L184.3 130.5C185.3 130.5 186.2 131.3 186.2 132.3 186.2 133.3 185.4 134.1 184.3 134.1L180.7 134.1C179.7 134.1 178.9 133.3 178.9 132.3ZM178.9 137.3C178.9 136.3 179.7 135.5 180.7 135.5L184.3 135.5C185.3 135.5 186.2 136.3 186.2 137.3 186.2 138.3 185.4 139.1 184.3 139.1L180.7 139.1C179.7 139.1 178.9 138.3 178.9 137.3ZM168.8 122.2C168.8 121.2 169.6 120.3 170.6 120.3L174.2 120.3C175.2 120.3 176 121.1 176 122.2 176 123.1 175.2 124 174.2 124L170.6 124C169.6 124 168.8 123.2 168.8 122.2ZM168.8 127.2C168.8 126.2 169.6 125.4 170.6 125.4L174.2 125.4C175.2 125.4 176 126.2 176 127.2 176 128.2 175.2 129 174.2 129L170.6 129C169.6 129 168.8 128.2 168.8 127.2ZM168.8 132.3C168.8 131.3 169.6 130.5 170.6 130.5L174.2 130.5C175.2 130.5 176 131.3 176 132.3 176 133.3 175.2 134.1 174.2 134.1L170.6 134.1C169.6 134.1 168.8 133.3 168.8 132.3ZM168.8 137.3C168.8 136.3 169.6 135.5 170.6 135.5L174.2 135.5C175.2 135.5 176 136.3 176 137.3 176 138.3 175.2 139.1 174.2 139.1L170.6 139.1C169.6 139.1 168.8 138.3 168.8 137.3ZM189 122.2C189 121.2 189.8 120.3 190.8 120.3L194.5 120.3C195.4 120.3 196.3 121.1 196.3 122.2 196.3 123.1 195.5 124 194.5 124L190.8 124C189.8 124 189 123.2 189 122.2ZM189 127.2C189 126.2 189.8 125.4 190.8 125.4L194.5 125.4C195.4 125.4 196.3 126.2 196.3 127.2 196.3 128.2 195.5 129 194.5 129L190.8 129C189.8 129 189 128.2 189 127.2ZM189 132.3C189 131.3 189.8 130.5 190.8 130.5L194.5 130.5C195.4 130.5 196.3 131.3 196.3 132.3 196.3 133.3 195.5 134.1 194.5 134.1L190.8 134.1C189.8 134.1 189 133.3 189 132.3ZM189 137.3C189 136.3 189.8 135.5 190.8 135.5L194.5 135.5C195.4 135.5 196.3 136.3 196.3 137.3 196.3 138.3 195.5 139.1 194.5 139.1L190.8 139.1C189.8 139.1 189 138.3 189 137.3ZM190.5 115.1C190.5 114 191.4 113.1 192.5 113.1L194.3 113.1C195.4 113.1 196.3 114 196.3 115.1L196.3 116.9C196.3 118 195.4 118.9 194.3 118.9L192.5 118.9C191.4 118.9 190.5 118 190.5 116.9L190.5 115.1ZM168.8 88.5C168.8 85.8 171.1 83.5 173.8 83.5L191.3 83.5C194 83.5 196.3 85.8 196.3 88.5L196.3 98.7C196.3 101.5 194 103.7 191.3 103.7L173.8 103.7C171.1 103.7 168.8 101.5 168.8 98.7L168.8 88.5Z"/><g stroke-width="4" stroke="#fff" fill="none"><path d="M63 37C74 18 90 3 115 3 140 3 159 17 167 32"/><path d="M63 144C75 165 91 177 116 177 141 177 159 162 167 148"/></g></symbol>
    
<!--    width="140" height="160"-->
    <symbol id="hadoop-icon" viewBox="0 0 140 160"><path d="M70 0C36.3 0 0 10.2 0 32.5L0 127.5C0 149.8 36.3 160 70 160 103.7 160 140 149.8 140 127.5L140 32.5C140 10.2 103.7 0 70 0L70 0ZM130 127.5C130 139.9 103.1 150 70 150 36.9 150 10 139.9 10 127.5L10 108.8C20.3 119.5 45.3 125 70 125 94.8 125 119.7 119.5 130 108.8L130 127.5 130 127.5ZM130 97.5L130 97.5C130 97.6 130 97.6 130 97.7 130 110 103.1 120 70 120 36.9 120 10 110 10 97.7 10 97.6 10 97.6 10 97.5L10 97.5 10 78.8C20.3 89.5 45.3 95 70 95 94.8 95 119.7 89.5 130 78.8L130 97.5 130 97.5ZM130 67.5L130 67.5C130 67.6 130 67.6 130 67.7 130 80 103.1 90 70 90 36.9 90 10 80 10 67.7 10 67.6 10 67.6 10 67.5L10 67.5 10 50.3C23.1 60.3 47.1 65 70 65 92.9 65 116.9 60.3 130 50.3L130 67.5 130 67.5ZM70 55C36.9 55 10 44.9 10 32.5 10 20.1 36.9 10 70 10 103.1 10 130 20.1 130 32.5 130 44.9 103.1 55 70 55L70 55Z"/><ellipse cx="115" cy="130" rx="5" ry="5"/><ellipse cx="115" cy="100" rx="5" ry="5"/><ellipse cx="115" cy="70" rx="5" ry="5"/></symbol>
    
</svg>