<?xml version="1.0" encoding="UTF-8" standalone="no"?>
<svg width="160px" height="29px" viewBox="0 0 160 29" version="1.1" xmlns="http://www.w3.org/2000/svg" xmlns:xlink="http://www.w3.org/1999/xlink">
    <!-- Generator: Sketch 3.8.3 (29802) - http://www.bohemiancoding.com/sketch -->
    <title>Byzov Alexandr</title>
    <desc>Created with Sketch.</desc>
    <defs></defs>
    <g id="Page-1" stroke="none" stroke-width="1" fill="none" fill-rule="evenodd">
        <path d="M10.9400001,4.288 C10.9400001,6.232 9.45200014,8.656 7.48400014,9.256 L8.87600014,2.752 C8.58800014,2.56 8.15600014,2.44 7.72400014,2.44 C6.83600014,2.44 5.90000014,2.848 5.66000014,3.976 L2.92400014,16.888 C2.54000014,16.672 2.18000014,16.432 1.82000014,16.12 C1.14800014,16.336 0.860000143,16.84 0.860000143,17.368 C0.860000143,18.472 3.06800014,19.192 5.70800014,19.192 C10.2920001,19.192 13.4600001,15.256 13.4600001,12.352 C13.4600001,10.648 12.3560001,9.304 9.83600014,9.304 L9.81200014,9.28 C12.2120001,8.008 13.5800001,5.848 13.5800001,4 C13.5800001,1.216 11.3960001,0.52 8.42000014,0.52 C4.67600014,0.52 0.356000143,2.272 0.356000143,4.936 C0.356000143,6.136 1.07600014,7.216 2.30000014,7.216 C2.63600014,7.216 2.97200014,7.144 3.33200014,6.976 C3.04400014,6.64 2.85200014,6.208 2.85200014,5.584 C2.85200014,3.184 5.68400014,1.648 8.03600014,1.648 C10.0040001,1.648 10.9400001,2.44 10.9400001,4.288 L10.9400001,4.288 Z M8.30000014,10.336 C9.71600014,10.336 10.3880001,11.224 10.3880001,12.472 C10.3880001,15.04 8.18000014,17.656 5.70800014,17.656 L5.68400014,17.656 L7.22000014,10.48 C7.60400014,10.384 7.96400014,10.336 8.30000014,10.336 L8.30000014,10.336 Z M15.3680001,14.584 C14.8880001,16.816 15.0320001,19.168 17.4080001,19.168 C18.6080001,19.168 19.6880001,18.376 20.6240001,17.2 C20.4560001,17.776 20.3120001,18.304 20.1680001,18.832 C16.9280001,20.008 13.1840001,22.312 13.1840001,25.288 C13.1840001,27.28 14.4320001,28.24 15.7760001,28.24 C19.8320001,28.24 21.6560001,23.968 22.7600001,19.696 C23.6480001,19.6 24.5120001,19.6 25.2800001,19.768 C25.5920001,18.832 25.1600001,17.872 24.1760001,17.872 C23.9120001,17.872 23.5760001,17.896 23.1680001,17.968 C23.2640001,17.536 23.3600001,17.104 23.4560001,16.696 L25.4960001,7.192 C25.2080001,7 24.8000001,6.88 24.3680001,6.88 C23.5040001,6.88 22.5920001,7.288 22.3520001,8.392 L20.7920001,15.568 C20.2400001,16.096 19.6400001,16.432 18.9440001,16.432 C18.1520001,16.432 17.9600001,15.856 18.1280001,15.112 L19.6160001,8.2 C19.8080001,7.288 19.3280001,6.88 18.4640001,6.88 C17.4560001,6.88 16.5920001,7.384 15.7760001,8.032 C15.2960001,8.416 15.4640001,9.16 15.7760001,9.352 C15.9920001,9.16 16.1360001,9.064 16.2560001,9.064 C16.4720001,9.064 16.5920001,9.28 16.4960001,9.664 L15.3680001,14.584 Z M37.1750958,16.450314 C37.1442346,16.5731372 37.0792026,16.7002637 36.9800001,16.816 C35.7800001,18.088 34.2440001,19.192 32.5880001,19.192 C31.7240001,19.192 30.7160001,18.664 29.5400001,18.256 C29.1800001,18.88 28.7240001,19.192 28.2440001,19.192 C26.8760001,19.192 26.3480001,18.112 26.8520001,16.912 C27.2600001,16.72 27.6440001,16.6 28.0280001,16.528 C29.3720001,13.816 31.4120001,11.056 33.0680001,9.064 C31.9160001,9.256 30.7400001,9.064 29.8280001,9.064 C29.1560001,9.064 28.5800001,9.16 28.2920001,9.568 C28.0760001,9.232 27.9800001,8.848 27.9800001,8.512 C27.9800001,7.528 28.6760001,6.64 29.8280001,6.64 C31.2440001,6.64 32.1320001,7.48 33.2840001,7.48 C33.7400001,7.48 34.2440001,7.384 34.8200001,7.072 C35.4920001,7.408 35.8760001,7.816 36.3800001,8.704 C34.3160001,10.816 32.2040001,14.176 30.9320001,16.816 C31.8680001,17.08 32.8040001,17.392 33.7880001,17.392 C34.8680001,17.392 36.0920001,16.552 36.7880001,15.712 C36.9080321,15.76656 37.0032574,15.8409653 37.0714205,15.9284486 C37.0234107,15.6099543 37,15.2799035 37,14.944 C37,11.32 39.52,6.784 43.144,6.784 C44.344,6.784 45.304,7.12 46.024,8.2 C45.976,8.752 45.568,9.016 45.208,8.872 C44.752,8.704 44.248,8.608 43.672,8.608 C41.488,8.608 40.072,11.824 40.072,14.176 C40.072,16.288 40.792,17.104 41.632,17.104 C43.048,17.104 44.848,14.776 44.272,12.184 C43.84,12.16 43.432,12.064 43.168,11.896 C42.664,10.576 43.192,9.376 44.56,9.376 C45.088,9.376 45.568,9.568 45.952,9.856 C46.672,9.328 47.296,8.728 47.824,8.2 C47.872,8.128 47.92,8.08 47.992,8.032 C48.808,7.384 49.672,6.88 50.68,6.88 C51.544,6.88 52.048,7.288 51.832,8.2 C51.208,11.152 50.92,14.728 51.928,16.696 C53.752,15.256 54.952,12.736 54.952,10.48 C54.952,8.872 54.472,7.456 53.464,7 C53.512,5.752 54.28,5.128 55.072,5.152 C56.008,5.176 57.016,6.064 57.016,7.816 C57.016,13.312 53.08,19.192 50.488,19.192 C47.944,19.192 47.872,12.208 48.736,9.424 C48.784,9.232 48.688,9.064 48.472,9.064 C48.352,9.064 48.208,9.16 47.992,9.352 C47.728,9.664 47.224,10.192 46.6,10.72 C46.744,11.056 46.792,11.464 46.792,11.896 C46.672,15.52 43.408,19.192 40.528,19.192 C38.6296431,19.192 37.5663546,18.0172428 37.1750958,16.450314 Z M15.8000001,26.104 C15.4880001,26.104 14.8160001,25.816 14.8160001,24.976 C14.8160001,23.344 17.0240001,21.568 19.6640001,20.512 C18.4400001,24.448 17.4560001,26.104 15.8000001,26.104 Z M81.656,16.816 C81.3074899,17.1707335 80.9428421,17.5012603 80.5725181,17.7962819 C79.5147186,18.6389865 78.4106069,19.192 77.504,19.192 C76.136,19.192 74.6,18.52 75.056,16.336 L75.872,12.448 L73.184,12.448 C71.048,17.392 69.152,19.192 67.088,19.192 C65.888,19.192 65.024,18.04 65.024,15.904 C65.024,14.512 65.984,14.104 67.064,14.104 C67.496,14.104 67.928,14.248 68.264,14.512 C67.856,15.448 67.76,16.432 67.76,16.984 L67.76,17.2 C69.656,16.48 72.08,13.528 75.584,1.816 L75.104,1.816 C72.92,1.816 72.128,3.04 72.128,4.168 C72.128,4.696 72.32,5.224 72.608,5.56 C72.248,5.728 71.912,5.8 71.576,5.8 C70.352,5.8 69.632,4.72 69.632,3.52 C69.632,2.008 70.784,0.28 73.616,0.28 C76.76,0.28 79.712,1.36 81.56,0.76 C81.8,0.904 81.896,1.144 81.896,1.384 C81.896,1.84 81.608,2.32 81.056,2.32 L80.96,2.32 L78.224,15.136 C77.936,16.528 78.368,16.912 79.016,16.912 C79.784,16.912 80.912,16.192 81.464,15.712 C81.728,15.832 81.872,16.048 81.872,16.288 C81.872,16.456 81.8,16.648 81.656,16.816 Z M76.16,11.056 L73.76,11.056 C74.696,8.656 75.68,5.656 76.76,1.888 C77.216,1.936 77.648,1.984 78.08,2.032 L76.16,11.056 Z M84.48728,19.192 C82.80728,19.192 81.53528,18.16 81.84728,15.64 C82.95128,6.952 84.55928,1.864 87.70328,1.864 C88.83128,1.864 89.62328,2.56 89.62328,3.808 C89.62328,5.68 88.06328,9.52 84.96728,14.248 C84.91928,14.536 84.87128,14.848 84.84728,15.136 C84.67928,16.384 85.30328,16.864 86.14328,16.864 C87.46328,16.864 89.38328,15.688 89.83928,14.368 C90.29528,14.296 90.58328,14.824 90.41528,15.28 C89.57528,17.464 86.69528,19.192 84.48728,19.192 Z M88.22,3.448 C88.484,3.448 88.628,3.568 88.628,3.976 C88.628,4.792 87.74,8.2 85.628,12.112 C86.444,7.048 87.428,3.448 88.22,3.448 Z M98.4880015,16.384 C98.4880015,15.976 98.2240015,15.736 97.7680015,15.736 C97.3600015,16.6 96.5920015,17.104 95.5360015,17.104 C94.5040015,17.104 93.6880015,16.552 93.4480015,15.328 C98.0800015,12.76 99.1600015,11.128 99.1600015,9.088 C99.1600015,8.008 98.6080015,6.784 96.4240015,6.784 C92.4640015,6.784 90.4000015,11.776 90.4000015,14.896 C90.4000015,18.04 91.9600015,19.192 94.1680015,19.192 C96.2800015,19.192 98.4880015,17.704 98.4880015,16.384 Z M111.51419,16.4192654 C111.486985,16.5515612 111.419589,16.6904794 111.312,16.816 C110.184,18.088 108.456,19.192 107.16,19.192 C105.744,19.192 104.784,18.424 104.328,15.448 C103.152,17.152 101.496,19.192 100.104,19.192 C99.1199996,19.192 98.3999996,18.256 98.3999996,16.504 C98.3999996,15.352 99.1919996,15.016 100.08,15.016 C100.368,15.016 100.752,15.136 101.064,15.352 C100.752,16.048 100.656,16.768 100.656,17.248 C101.592,16.72 102.6,16 104.112,13.552 L103.608,9.496 C103.512,8.632 102.528,8.224 101.256,9.352 C100.92,9.04 100.8,8.464 101.256,8.032 C101.616,7.72 102.648,6.784 103.824,6.784 C105.48,6.784 106.152,7.72 106.416,9.832 L106.632,11.536 C107.52,10.504 108.48,9.112 108.48,8.128 C108.48,7.6 108.144,6.976 107.184,7 C107.232,5.752 108,5.152 108.792,5.152 C109.824,5.152 111.096,5.656 110.736,7.816 C110.448,9.472 109.176,10.888 106.8,12.928 L107.016,14.632 C107.16,15.76 107.544,16.912 108.6,16.912 C109.488,16.912 110.52,16.312 111.12,15.712 C111.270022,15.7801922 111.381294,15.8793855 111.449409,15.9963672 C111.414139,15.7014724 111.4,15.4172702 111.4,15.16 C111.4,10.96 114.112,6.784 117.448,6.784 C118.528,6.784 119.32,7.048 119.92,7.576 C120.328,7.096 120.952,6.88 121.552,6.88 C121.984,6.88 122.392,7 122.68,7.192 L121,15.136 C120.712,16.48 121.096,16.912 121.72,16.912 C122.608,16.912 123.64,16.312 124.24,15.712 C124.504,15.832 124.648,16.048 124.648,16.288 C124.648,16.456 124.576,16.648 124.432,16.816 C123.304,18.088 121.576,19.192 120.28,19.192 C119.152,19.192 118.024,18.664 118.048,16.768 C117.04,18.184 115.768,19.192 114.4,19.192 C112.519338,19.192 111.76957,17.7749781 111.51419,16.4192654 Z M96.92,8.656 C97.328,8.656 97.616,9.04 97.616,9.592 C97.616,11.152 96.032,12.832 93.704,14.296 C93.776,12.616 94.544,8.656 96.92,8.656 Z M136.910224,16.3979996 C136.886102,16.5365933 136.817338,16.6837346 136.703932,16.816 C135.57558,18.088 133.967078,19.192 132.358576,19.192 C131.158202,19.192 129.885805,18.592 130.485992,15.784 L131.494307,11.008 C131.710374,10 131.374269,9.592 130.846105,9.592 C130.197902,9.592 129.237603,10.192 128.709438,10.84 L127.244981,17.68 C127.004906,18.784 126.092622,19.192 125.228352,19.192 C124.796217,19.192 124.38809,19.072 124.1,18.88 L126.068614,9.664 C126.164644,9.28 126.044607,9.064 125.828539,9.064 C125.708502,9.064 125.564457,9.16 125.348389,9.352 C125.036292,9.16 124.86824,8.416 125.348389,8.032 C126.164644,7.384 127.028914,6.88 128.037228,6.88 C128.901498,6.88 129.405655,7.288 129.189588,8.2 L128.949513,9.28 C129.957827,7.84 131.494307,6.88 132.886741,6.88 C134.159138,6.88 135.071423,7.888 134.519251,10.408 L133.342884,15.928 C133.198839,16.624 133.510936,16.912 133.991086,16.912 C134.879363,16.912 135.911685,16.312 136.511872,15.712 C136.669717,15.7837252 136.784677,15.8897472 136.851627,16.0146912 C136.814731,15.7132483 136.8,15.422595 136.8,15.16 C136.8,10.96 139.512,6.784 142.848,6.784 C143.832,6.784 144.576,7 145.152,7.456 L145.752,4.648 C145.896,4 145.44,3.856 145.056,4.312 C144.72,4 144.696,3.76 144.696,3.568 C144.696,3.016 146.424,1.864 147.72,1.864 C148.584,1.864 149.064,2.272 148.872,3.184 L146.352,15.136 C146.064,16.48 146.448,16.912 147.072,16.912 C147.96,16.912 148.992,16.312 149.592,15.712 C149.856,15.832 150,16.048 150,16.288 C150,16.456 149.928,16.648 149.784,16.816 C148.656,18.088 146.928,19.192 145.632,19.192 C144.504,19.192 143.424,18.664 143.448,16.768 C142.44,18.184 141.168,19.192 139.8,19.192 C137.909503,19.192 137.161759,17.7601173 136.910224,16.3979996 Z M118.64,15.208 C117.992,16.096 116.984,16.72 116.216,16.72 C115.472,16.72 114.92,16.192 114.92,14.992 C114.92,12.376 115.952,8.584 118.856,8.584 C119.216,8.584 119.576,8.632 119.984,8.776 L118.64,15.208 Z M144.512,15.208 C143.864,16.096 142.856,16.72 142.088,16.72 C141.344,16.72 140.792,16.192 140.792,14.992 C140.792,12.376 141.824,8.584 144.728,8.584 C145.088,8.584 145.472,8.656 145.88,8.8 L144.512,15.232 L144.512,15.208 Z M154.488,8.2 C154.68,7.288 154.2,6.88 153.336,6.88 C152.328,6.88 151.464,7.384 150.648,8.032 C150.168,8.416 150.336,9.16 150.648,9.352 C150.864,9.16 151.008,9.064 151.128,9.064 C151.344,9.064 151.44,9.28 151.368,9.664 L149.4,18.88 C149.688,19.072 150.096,19.192 150.528,19.192 C151.392,19.192 152.304,18.784 152.544,17.68 L152.832,16.216 C154.056,10.672 155.184,9.592 155.976,9.592 C156.48,9.592 156.72,9.856 156.72,10.192 C156.72,10.48 156.624,10.792 156.456,10.936 C156.672,11.008 156.936,11.032 157.152,11.032 C158.4,11.032 159.072,9.856 159.072,8.776 C159.072,7.792 158.472,6.88 157.32,6.88 C156.216,6.88 155.184,7.552 154.224,9.496 L154.488,8.2 Z" id="Byzov-Alexandr" fill="#FFFFFF"></path>
    </g>
</svg>