<svg width="116px" height="60px" viewBox="0 0 116 60">
                            <g stroke="none" stroke-width="1" fill="none" fill-rule="evenodd">
                                <g transform="translate(-173.000000, -17.000000)" fill-opacity="1" fill="#FFFFFF">
                                    <g transform="translate(173.000000, 17.000000)">
                                        <path d="M64.5053021,29.342499 C64.5053021,31.0006283 65.7413911,32.27857 67.3452165,32.27857 C68.9824163,32.27857 70.2185053,31.0006283 70.2185053,29.342499 C70.2185053,27.6846892 68.9824163,26.3374192 67.3452165,26.3374192 C65.7413911,26.3374192 64.5053021,27.6846892 64.5053021,29.342499 Z M105.594135,41.6136143 C105.588573,41.6129754 105.58301,41.6126559 105.577448,41.6123364 C104.126898,44.6720482 102.443962,47.1391146 99.3976212,49.0285513 L103.662437,34.6079381 L99.4266693,34.6079381 L98.672346,37.1801152 C97.9761189,35.3804539 96.5539985,34.4622528 94.6102487,34.4622528 C90.5602032,34.4622528 87.3488441,38.8059765 86.7178207,43.1973035 C85.3785183,45.6634115 84.0333445,47.2713816 82.9486764,47.2713816 C82.0784698,47.2713816 82.1072089,46.3164397 82.4264288,45.2969617 L83.7320478,40.8899799 C84.6897077,37.6804294 83.790144,34.5021885 80.482679,34.5021885 C78.9159362,34.5021885 77.5522211,35.2299763 76.3334374,36.6395459 L76.9137811,34.6079381 L72.6777043,34.6079381 L70.5738809,41.8017912 C68.9963223,45.0659737 67.4703705,47.2403915 65.8894128,47.2403915 C64.7580823,47.2403915 64.5837938,46.1634061 64.9611099,44.8736435 L66.7457134,38.8075739 C67.3591225,36.7226121 65.850476,34.6178422 63.7426353,34.6178422 L61.6245968,41.8235163 C59.8501911,45.3583029 57.1425383,47.3627544 54.4596072,47.3627544 C52.0223488,47.3627544 50.6298946,45.8522273 50.6298946,43.3928286 C50.6298946,40.4532433 52.6898368,37.7034323 54.8369234,37.7034323 C55.1848824,37.7034323 55.4750543,37.7679684 55.70713,37.8880949 C55.0384059,38.4066197 54.6780859,39.2868021 54.803549,40.2002109 C54.9917435,41.5714423 56.3353722,42.4883654 57.6496438,42.2196782 C59.0856701,41.9257516 59.8560626,40.4251286 59.8560626,38.9724284 C59.8560626,36.8123875 58.1734365,34.5031469 54.5467515,34.5031469 C49.6441137,34.5031469 46.4753996,38.8066155 46.1357842,43.0484233 C44.7665066,45.6103769 43.3848682,47.2816051 42.2754784,47.2816051 C41.3762237,47.2816051 41.4340108,46.244236 41.7532308,45.2244385 L43.6308499,38.8101298 C44.2414779,36.7229316 42.7306681,34.6181617 40.6215913,34.6181617 L39.8963162,37.1254832 C39.171041,35.3855656 37.7201815,34.4648087 35.892624,34.4648087 C31.3082791,34.4648087 27.8268346,39.8232181 27.8268346,44.8327494 C27.8268346,48.3419772 29.7705844,50.3314129 32.6719943,50.3314129 C34.4998608,50.3314129 36.1827959,49.4065026 37.4881058,47.9068381 C37.7492296,49.2866956 38.6197453,50.3384416 40.505708,50.3384416 C42.7998891,50.3384416 44.799881,48.7218453 46.4787989,46.2202745 C47.3582762,48.8736009 49.7556707,50.4307728 53.1249402,50.4307728 C56.2581166,50.4307728 58.7275133,49.0707234 60.6273821,46.9375193 C60.7627338,48.9477215 61.8875748,50.3409974 64.2358348,50.3409974 C65.9193879,50.3409974 67.3810631,49.6854134 68.6755573,48.3969287 L68.1517646,50.2627235 L72.3878414,50.2627235 L75.3182993,40.208198 C76.1594578,39.1286568 77.1168087,38.2104557 78.2774963,38.2104557 C79.7574038,38.2104557 79.9313833,39.5062885 79.4669229,41.0363042 L78.4514758,44.3538407 C77.6974615,46.9036538 77.7839877,50.3470677 81.1789061,50.3470677 C83.3259926,50.3470677 85.2144275,48.9231212 86.8241243,46.6908766 C87.4103395,49.0624168 89.1220137,50.3425949 91.3608798,50.3425949 C92.8117392,50.3425949 94.1170492,49.8020255 95.2486886,48.8720035 L94.5815096,51.2115952 C92.0283679,51.9313958 86.7477958,52.53107 86.7477958,56.4604211 C86.7477958,58.5300476 88.2564424,60 90.8098932,60 C93.3049387,60 96.6414518,58.500016 98.4399613,52.4109434 L98.6142498,51.8109498 C102.364853,49.9397238 104.788205,47.382243 106.655008,43.6726978 C107.098764,42.7902791 106.553649,41.6797478 105.594135,41.6136143 Z M34.4127165,46.7116431 C33.1361457,46.7116431 32.3240352,45.7816211 32.3240352,44.1621495 C32.3240352,41.5525926 34.3549294,38.5526246 36.3567754,38.5526246 C37.6333463,38.5526246 38.5038619,39.4826466 38.5038619,41.072406 C38.5038619,43.7119945 36.4726588,46.7116431 34.4127165,46.7116431 L34.4127165,46.7116431 Z M90.4032199,57.600345 C89.4749171,57.600345 89.0104567,56.9703198 89.0104567,56.2805508 C89.0104567,54.6604403 91.6510517,54.1205099 93.8849735,53.5505479 C93.1016021,56.1300732 91.8250312,57.600345 90.4032199,57.600345 L90.4032199,57.600345 Z M93.1596983,46.7116431 C91.9412236,46.7116431 91.099756,45.7816211 91.099756,44.1621495 C91.099756,41.5525926 93.1016021,38.5526246 95.1615443,38.5526246 C96.3222319,38.5526246 97.2795828,39.3925517 97.2795828,41.1324693 C97.2795828,43.7119945 95.2774277,46.7116431 93.1596983,46.7116431 Z M115.828025,12.5851695 C115.828025,10.3564392 113.89849,8.44559696 110.790653,8.44559696 C106.226086,8.44559696 103.123502,12.5548184 102.812008,16.7055729 C101.491247,19.2039488 100.198916,20.777095 98.8654849,20.777095 C97.7737093,20.777095 97.6062193,19.8390858 97.9699384,18.5943707 L101.32901,7.33698257 C101.927895,5.33061416 100.477036,3.29836743 98.4464507,3.29836743 L94.7489996,15.6442423 C93.3806492,18.4410177 91.7700253,20.8151138 88.9557597,22.5777148 L91.850371,12.771749 C92.4440028,10.7612272 90.9891261,8.72961949 88.9557597,8.72961949 L86.1000852,18.3573125 C85.3160958,19.3994739 84.3921193,20.2330114 83.3000347,20.2330114 C81.7879889,20.2330114 81.7042439,18.9681686 82.1523261,17.4918265 L83.5392179,12.7733464 C84.1309955,10.7609078 82.6745737,8.72961949 80.6402803,8.72961949 L78.6446147,15.5065441 C77.2982048,18.270093 75.2506234,20.7828458 73.3615705,20.7828458 C72.1576198,20.7828458 71.5698595,19.8707149 72.1576198,17.8736116 L73.9218278,11.9244736 L77.6452368,11.9244736 L78.5695223,8.72961949 L74.8736163,8.72961949 L76.3572321,3.73893782 L71.8776457,5.01847691 L70.7855611,8.72961949 L69.0779042,8.72961949 L68.1539277,11.9244736 L69.8334636,11.9244736 L68.4339019,16.7416747 C67.3977503,20.2151202 67.9576986,23.7384053 71.9898208,23.7384053 C74.2951267,23.7384053 76.1684195,22.5234023 77.7110585,20.6119211 C77.9347906,22.4218059 79.0679752,23.7320156 81.4239607,23.7320156 C82.8522615,23.7320156 83.9999701,23.0940033 85.0361217,22.0230881 L84.2802533,24.5700259 C81.8442309,25.2645872 76.7200242,25.8431753 76.7200242,29.6351477 C76.7200242,31.6325705 78.176137,33.0510857 80.6402803,33.0510857 C83.0484906,33.0510857 86.2681933,31.6034973 88.0036622,25.7268826 L88.1720793,25.1482945 C90.5212664,24.0102874 92.3284284,22.5499196 93.8018465,20.6860417 C94.0048741,22.4940096 95.1000489,23.7297792 97.2703121,23.7297792 C99.631242,23.7297792 101.542545,22.2090287 103.157495,19.7703965 C104.014413,22.3262798 106.337025,24.2987828 109.541894,23.8166793 C112.404058,23.3860129 113.987797,20.9499366 113.987797,20.9499366 L113.891382,19.4723166 C113.891382,19.4723166 112.616665,20.4505809 111.013458,20.8301296 C109.103083,21.2822015 107.591655,19.8796605 107.227936,18.1429378 C113.4433,18.3167378 115.828025,15.103673 115.828025,12.5851695 Z M80.2762521,30.7351359 C79.3800876,30.7351359 78.9041934,30.1271552 78.9041934,29.4613476 C78.9041934,27.8981055 81.4523907,27.3770247 83.6081299,26.8268709 C82.8522615,29.3163012 81.6201898,30.7351359 80.2762521,30.7351359 L80.2762521,30.7351359 Z M107.181273,16.2033418 C107.489059,13.9167847 108.972984,12.0353351 110.736883,12.0353351 C111.745223,12.0353351 112.136754,12.6429963 112.136754,13.308804 C112.136754,14.5825923 110.625017,16.145515 107.181273,16.2033418 Z M18.4047465,21.8285215 L19.0818142,21.8285215 C20.3933046,21.8285215 21.6884168,21.6732516 22.8849509,21.2032886 C22.705718,23.6179593 23.7656643,25.4131479 26.3697947,25.4131479 C28.5774496,25.4131479 30.3907921,24.0895198 31.9377574,21.9234087 C32.5097576,24.1946305 34.1562281,25.4272052 36.308568,25.4272052 C38.1287089,25.4272052 39.7804328,24.5035729 41.0403165,23.0850577 C41.2924786,24.4166729 42.1324011,25.4307196 43.952233,25.4307196 C45.6376403,25.4307196 47.1574117,24.5214641 48.5025855,23.0246749 C49.3718651,26.2693688 52.399974,28.5345204 56.3956315,28.5345204 C61.5198383,28.5345204 65.4116644,24.7716212 65.4116644,20.1400411 C65.4116644,16.9851226 63.5634024,14.2062385 61.3517302,11.7455618 C60.0356045,10.2692197 58.1598395,8.59032385 58.1598395,6.65104738 C58.1598395,5.31943217 59.083507,3.84309006 61.043635,3.84309006 C62.4997478,3.84309006 63.5634024,4.68269773 63.7596315,5.63795913 C62.5757673,6.17341668 61.9296018,7.56733155 62.4669915,9.02035122 C62.766743,9.83152469 63.5037611,10.3982918 64.3375031,10.5040415 C66.4669753,10.7740067 67.6514576,8.89223757 67.6514576,6.91142799 C67.6514576,4.27727074 65.5235304,0.861652166 60.8477149,0.861652166 C56.3956315,0.861652166 54.0158513,3.95906327 54.0158513,7.37468185 C54.0158513,10.5299198 56.0319124,12.5564158 58.2157725,14.9007998 C59.9796715,16.7534957 61.043635,18.4905379 61.043635,20.3429143 C61.043635,22.5719641 59.4197232,25.061075 56.3678195,25.061075 C53.8477432,25.061075 52.0838442,23.2955986 52.0838442,21.4138295 C52.0838442,20.0534606 53.0359417,19.2141724 54.0439723,19.2141724 C54.7157866,19.2141724 55.38791,19.561453 55.9756703,20.5167144 C55.9756703,20.5167144 56.9540347,19.6454777 56.9540347,18.314182 C56.9540347,16.089605 55.331977,15.016773 53.6799441,15.016773 C51.1246392,15.016773 48.6700756,16.987998 48.301103,20.2205514 C47.3524047,21.6301211 46.4370809,22.4796328 45.660199,22.4796328 C44.7924645,22.4796328 44.8762095,21.6774049 45.1561837,20.722463 L49.8041872,5.21527992 L45.716441,5.21527992 L43.3644727,12.9643987 C42.6923494,11.227676 41.2924786,10.2248112 39.4445256,10.2248112 C35.531686,10.2248112 32.4297208,14.3678981 31.8255823,18.6100255 C30.5347964,21.0135142 29.2696594,22.4988019 27.9655856,22.4988019 C26.87381,22.4988019 26.7057019,21.6582358 27.0697301,20.4135206 L30.4216943,9.25165866 C31.0230516,7.24784614 29.5749734,5.21527992 27.5456243,5.21527992 L23.8549717,17.4320827 C23.525245,18.0716925 23.149783,18.5838276 22.7378563,18.9982002 C21.9940398,19.3723177 21.1806933,19.5691207 20.3129588,19.6320593 C22.1593667,16.9595638 23.206025,13.6183853 23.206025,10.3411039 C23.206025,4.13637767 19.5434935,0 14.4344288,0 C11.5413626,0 9.23327548,1.33640749 7.75584015,3.34085899 C2.80097757,5.6318889 0,10.6593114 0,15.3685264 C0,20.6502593 3.41624085,25.2965357 9.84853875,25.2965357 C13.2650886,25.2965357 16.188748,24.0649194 18.4047465,21.8285215 Z M39.9763529,14.0557609 C41.0965585,14.0557609 42.020535,14.8662954 42.020535,16.5451912 C42.020535,19.0349411 40.088528,21.9294789 38.0446549,21.9294789 C36.8685163,21.9294789 36.0567148,21.0320444 36.0567148,19.4691217 C36.0567148,16.9506182 37.9884128,14.0557609 39.9763529,14.0557609 L39.9763529,14.0557609 Z M14.0036518,4.29548141 C16.8349135,4.29548141 18.3738443,6.93666734 18.3738443,10.5321562 C18.3738443,13.5867563 17.2969018,16.6729854 15.5425825,18.8368601 C11.7261579,17.086719 9.63345927,13.0458675 9.63345927,9.67305992 C9.63345927,6.74561506 11.2644787,4.29548141 14.0036518,4.29548141 L14.0036518,4.29548141 Z M4.7091899,15.3049488 C4.7091899,13.5867563 5.1399669,11.8366152 5.87853005,10.2455778 C6.27871385,14.3503264 8.95608253,18.6777564 13.4495749,20.7141564 C12.4032256,21.3822004 11.2335764,21.7323564 10.0027409,21.7323564 C6.43260692,21.7323564 4.7091899,18.772963 4.7091899,15.3049488 Z M35.5928725,51.58731 C35.7424392,52.2045559 35.2161743,52.8585425 34.7430613,53.307739 C31.0823839,56.7834208 26.3945165,56.5479601 24.0802489,51.1457812 C23.8515725,50.5339666 23.6448366,49.9713528 23.5063946,49.5253512 C23.4665308,49.3889309 23.4260489,49.2544275 23.3889662,49.1128955 C22.8460141,47.064355 22.3225304,44.7464883 21.1782211,43.6522508 C25.6463736,42.9321306 28.2866597,39.2126814 28.2866597,35.5232639 C28.2866597,30.9939191 24.2245623,27.3041821 16.9711923,27.3041821 C9.02159524,27.3041821 4.87266266,31.7137198 4.87266266,36.6929 C4.87266266,38.5826562 5.45300643,40.592539 6.81672157,42.092523 C8.34545458,40.8129839 9.19279356,38.8363276 9.01634186,36.8107901 C9.00089075,36.6331562 8.99254715,36.4536054 8.99254715,36.2727766 C8.99254715,33.9935677 10.2400699,31.6293756 13.9538992,30.8197996 L8.23822387,50.2627235 L12.5901841,50.2627235 L14.7950577,42.6679162 C15.6365253,43.1180712 16.5070409,43.4001768 17.4066047,43.5800471 C18.7990589,44.7500027 19.2922584,48.2653007 19.9016502,50.9048892 C20.1009696,51.7444969 20.3281009,52.5179711 20.6108563,53.2055037 C23.8234515,61.6667554 30.8920262,60.1610206 33.3138334,58.542827 C35.4253824,57.1316599 37.0134477,55.1233746 36.4331039,52.8684466 C36.1271719,51.6802803 35.5440469,51.3857147 35.5928725,51.58731 Z M18.5379351,40.3526054 C17.6093233,40.3526054 16.5651371,40.2027667 15.6365253,39.7826434 L18.3639556,30.5437642 C22.0196887,30.9939191 23.7023147,32.8833559 23.7023147,35.3731057 C23.7023147,37.9529504 21.9034963,40.3526054 18.5379351,40.3526054 L18.5379351,40.3526054 Z"></path>
                                    </g>
                                </g>
                            </g>
                        </svg>