<svg width="183" height="33" viewBox="0 0 183 33" style="fill-rule:evenodd"><path d="M12.6 4.9C12.6 7.1 10.9 9.8 8.6 10.5L10.2 3.1C9.9 2.9 9.4 2.8 8.9 2.8 7.9 2.8 6.8 3.2 6.5 4.5L3.4 19.2C2.9 19 2.5 18.7 2.1 18.3 1.3 18.6 1 19.2 1 19.8 1 21 3.5 21.8 6.6 21.8 11.8 21.8 15.5 17.4 15.5 14.1 15.5 12.1 14.2 10.6 11.3 10.6L11.3 10.6C14 9.1 15.6 6.7 15.6 4.6 15.6 1.4 13.1 0.6 9.7 0.6 5.4 0.6 0.4 2.6 0.4 5.6 0.4 7 1.2 8.2 2.6 8.2 3 8.2 3.4 8.1 3.8 7.9 3.5 7.6 3.3 7.1 3.3 6.4 3.3 3.6 6.5 1.9 9.2 1.9 11.5 1.9 12.6 2.8 12.6 4.9L12.6 4.9 12.6 4.9ZM9.5 11.8C11.2 11.8 11.9 12.8 11.9 14.2 11.9 17.1 9.4 20.1 6.6 20.1L6.5 20.1 8.3 11.9C8.7 11.8 9.2 11.8 9.5 11.8L9.5 11.8 9.5 11.8ZM17.7 16.6C17.1 19.1 17.3 21.8 20 21.8 21.4 21.8 22.6 20.9 23.7 19.6 23.5 20.2 23.4 20.8 23.2 21.4 19.5 22.8 15.2 25.4 15.2 28.8 15.2 31 16.6 32.1 18.1 32.1 22.8 32.1 24.9 27.3 26.2 22.4 27.2 22.3 28.2 22.3 29.1 22.5 29.4 21.4 28.9 20.3 27.8 20.3 27.5 20.3 27.1 20.4 26.6 20.4 26.8 20 26.9 19.5 27 19L29.3 8.2C29 8 28.5 7.8 28 7.8 27 7.8 26 8.3 25.7 9.5L23.9 17.7C23.3 18.3 22.6 18.7 21.8 18.7 20.9 18.7 20.7 18 20.8 17.2L22.6 9.3C22.8 8.3 22.2 7.8 21.2 7.8 20.1 7.8 19.1 8.4 18.1 9.1 17.6 9.6 17.8 10.4 18.1 10.6 18.4 10.4 18.6 10.3 18.7 10.3 18.9 10.3 19.1 10.6 19 11L17.7 16.6 17.7 16.6ZM42.8 18.7C42.7 18.9 42.6 19 42.5 19.1 41.1 20.6 39.4 21.8 37.5 21.8 36.5 21.8 35.3 21.2 34 20.8 33.6 21.5 33 21.8 32.5 21.8 30.9 21.8 30.3 20.6 30.9 19.2 31.3 19 31.8 18.9 32.2 18.8 33.8 15.7 36.1 12.6 38 10.3 36.7 10.5 35.4 10.3 34.3 10.3 33.5 10.3 32.9 10.4 32.5 10.9 32.3 10.5 32.2 10.1 32.2 9.7 32.2 8.6 33 7.6 34.3 7.6 35.9 7.6 37 8.5 38.3 8.5 38.8 8.5 39.4 8.4 40 8 40.8 8.4 41.3 8.9 41.8 9.9 39.5 12.3 37 16.1 35.6 19.1 36.6 19.4 37.7 19.8 38.9 19.8 40.1 19.8 41.5 18.8 42.3 17.9 42.4 17.9 42.6 18 42.6 18.1 42.6 17.8 42.6 17.4 42.6 17 42.6 12.9 45.4 7.7 49.6 7.7 51 7.7 52.1 8.1 52.9 9.3 52.9 10 52.4 10.3 52 10.1 51.5 9.9 50.9 9.8 50.2 9.8 47.7 9.8 46.1 13.5 46.1 16.1 46.1 18.5 46.9 19.5 47.9 19.5 49.5 19.5 51.6 16.8 50.9 13.9 50.4 13.8 49.9 13.7 49.6 13.5 49.1 12 49.7 10.7 51.2 10.7 51.9 10.7 52.4 10.9 52.8 11.2 53.7 10.6 54.4 9.9 55 9.3 55.1 9.2 55.1 9.2 55.2 9.1 56.1 8.4 57.1 7.8 58.3 7.8 59.3 7.8 59.9 8.3 59.6 9.3 58.9 12.7 58.6 16.8 59.7 19 61.8 17.4 63.2 14.5 63.2 11.9 63.2 10.1 62.6 8.5 61.5 8 61.5 6.5 62.4 5.8 63.3 5.9 64.4 5.9 65.6 6.9 65.6 8.9 65.6 15.1 61 21.8 58.1 21.8 55.1 21.8 55.1 13.9 56 10.7 56.1 10.5 56 10.3 55.7 10.3 55.6 10.3 55.4 10.4 55.2 10.6 54.9 11 54.3 11.6 53.6 12.2 53.8 12.6 53.8 13 53.8 13.5 53.7 17.7 49.9 21.8 46.6 21.8 44.4 21.8 43.2 20.5 42.8 18.7L42.8 18.7ZM18.2 29.7C17.8 29.7 17 29.4 17 28.4 17 26.6 19.6 24.5 22.6 23.3 21.2 27.8 20.1 29.7 18.2 29.7L18.2 29.7ZM93.9 19.1C93.5 19.5 93.1 19.9 92.7 20.3 91.4 21.2 90.2 21.8 89.1 21.8 87.6 21.8 85.8 21.1 86.3 18.6L87.3 14.2 84.2 14.2C81.7 19.8 79.5 21.8 77.2 21.8 75.8 21.8 74.8 20.5 74.8 18.1 74.8 16.5 75.9 16 77.1 16 77.6 16 78.1 16.2 78.5 16.5 78 17.6 77.9 18.7 77.9 19.3L77.9 19.6C80.1 18.8 82.9 15.4 86.9 2.1L86.4 2.1C83.9 2.1 82.9 3.5 82.9 4.7 82.9 5.3 83.2 5.9 83.5 6.3 83.1 6.5 82.7 6.6 82.3 6.6 80.9 6.6 80.1 5.4 80.1 4 80.1 2.3 81.4 0.3 84.7 0.3 88.3 0.3 91.7 1.5 93.8 0.9 94.1 1 94.2 1.3 94.2 1.6 94.2 2.1 93.8 2.6 93.2 2.6L93.1 2.6 90 17.2C89.6 18.8 90.1 19.2 90.9 19.2 91.8 19.2 93 18.4 93.7 17.9 94 18 94.2 18.3 94.2 18.5 94.2 18.7 94.1 18.9 93.9 19.1L93.9 19.1ZM87.6 12.6L84.8 12.6C85.9 9.8 87 6.4 88.3 2.1 88.8 2.2 89.3 2.3 89.8 2.3L87.6 12.6 87.6 12.6ZM97.2 21.8C95.2 21.8 93.8 20.7 94.1 17.8 95.4 7.9 97.2 2.1 100.9 2.1 102.2 2.1 103.1 2.9 103.1 4.3 103.1 6.5 101.3 10.8 97.7 16.2 97.7 16.5 97.6 16.9 97.6 17.2 97.4 18.6 98.1 19.2 99.1 19.2 100.6 19.2 102.8 17.9 103.3 16.3 103.8 16.3 104.2 16.9 104 17.4 103 19.9 99.7 21.8 97.2 21.8L97.2 21.8ZM101.5 3.9C101.8 3.9 101.9 4.1 101.9 4.5 101.9 5.5 100.9 9.3 98.5 13.8 99.4 8 100.5 3.9 101.5 3.9L101.5 3.9ZM113.3 18.6C113.3 18.2 113 17.9 112.4 17.9 112 18.9 111.1 19.5 109.9 19.5 108.7 19.5 107.7 18.8 107.5 17.4 112.8 14.5 114 12.7 114 10.3 114 9.1 113.4 7.7 110.9 7.7 106.3 7.7 104 13.4 104 17 104 20.5 105.8 21.8 108.3 21.8 110.7 21.8 113.3 20.1 113.3 18.6L113.3 18.6ZM128.2 18.7C128.2 18.8 128.1 19 128 19.1 126.7 20.6 124.7 21.8 123.2 21.8 121.6 21.8 120.5 21 120 17.6 118.6 19.5 116.7 21.8 115.1 21.8 114 21.8 113.2 20.8 113.2 18.8 113.2 17.5 114.1 17.1 115.1 17.1 115.4 17.1 115.9 17.2 116.2 17.5 115.9 18.3 115.8 19.1 115.8 19.6 116.8 19 118 18.2 119.7 15.4L119.1 10.8C119 9.8 117.9 9.4 116.4 10.6 116.1 10.3 115.9 9.6 116.4 9.1 116.9 8.8 118 7.7 119.4 7.7 121.3 7.7 122.1 8.8 122.4 11.2L122.6 13.1C123.6 12 124.8 10.4 124.8 9.2 124.8 8.6 124.4 7.9 123.3 8 123.3 6.5 124.2 5.9 125.1 5.9 126.3 5.9 127.8 6.4 127.3 8.9 127 10.8 125.6 12.4 122.8 14.7L123.1 16.7C123.2 17.9 123.7 19.2 124.9 19.2 125.9 19.2 127.1 18.6 127.8 17.9 128 18 128.1 18.1 128.2 18.2 128.1 17.9 128.1 17.5 128.1 17.3 128.1 12.5 131.2 7.7 135.1 7.7 136.3 7.7 137.2 8 137.9 8.6 138.4 8.1 139.1 7.8 139.8 7.8 140.3 7.8 140.8 8 141.1 8.2L139.2 17.2C138.8 18.8 139.3 19.2 140 19.2 141 19.2 142.2 18.6 142.9 17.9 143.2 18 143.3 18.3 143.3 18.5 143.3 18.7 143.3 18.9 143.1 19.1 141.8 20.6 139.8 21.8 138.3 21.8 137 21.8 135.7 21.2 135.8 19.1 134.6 20.7 133.1 21.8 131.6 21.8 129.4 21.8 128.5 20.2 128.2 18.7L128.2 18.7ZM111.5 9.8C111.9 9.8 112.3 10.3 112.3 10.9 112.3 12.7 110.4 14.6 107.8 16.3 107.8 14.4 108.7 9.8 111.5 9.8L111.5 9.8ZM157.4 18.7C157.4 18.8 157.3 19 157.2 19.1 155.9 20.6 154.1 21.8 152.2 21.8 150.8 21.8 149.4 21.2 150.1 18L151.2 12.5C151.5 11.4 151.1 10.9 150.5 10.9 149.7 10.9 148.6 11.6 148 12.3L146.3 20.1C146.1 21.4 145 21.8 144 21.8 143.5 21.8 143 21.7 142.7 21.5L145 11C145.1 10.6 145 10.3 144.7 10.3 144.6 10.3 144.4 10.4 144.2 10.6 143.8 10.4 143.6 9.6 144.2 9.1 145.1 8.4 146.1 7.8 147.2 7.8 148.2 7.8 148.8 8.3 148.6 9.3L148.3 10.6C149.5 8.9 151.2 7.8 152.8 7.8 154.3 7.8 155.3 9 154.7 11.8L153.3 18.1C153.2 18.9 153.5 19.2 154.1 19.2 155.1 19.2 156.3 18.6 157 17.9 157.2 18 157.3 18.1 157.4 18.2 157.3 17.9 157.3 17.5 157.3 17.3 157.3 12.5 160.4 7.7 164.3 7.7 165.4 7.7 166.3 8 166.9 8.5L167.6 5.3C167.8 4.6 167.3 4.4 166.8 4.9 166.4 4.6 166.4 4.3 166.4 4.1 166.4 3.4 168.4 2.1 169.9 2.1 170.9 2.1 171.4 2.6 171.2 3.6L168.3 17.2C168 18.8 168.4 19.2 169.1 19.2 170.2 19.2 171.3 18.6 172 17.9 172.3 18 172.5 18.3 172.5 18.5 172.5 18.7 172.4 18.9 172.3 19.1 171 20.6 169 21.8 167.5 21.8 166.2 21.8 164.9 21.2 165 19.1 163.8 20.7 162.3 21.8 160.8 21.8 158.6 21.8 157.7 20.2 157.4 18.7L157.4 18.7ZM136.4 17.3C135.7 18.3 134.5 19 133.6 19 132.8 19 132.2 18.4 132.2 17.1 132.2 14.1 133.3 9.8 136.7 9.8 137.1 9.8 137.5 9.8 138 10L136.4 17.3 136.4 17.3ZM163.4 19C162.5 19 161.9 18.4 161.9 17.1 161.9 14.1 163.1 9.8 166.4 9.8 166.9 9.8 167.3 9.8 167.8 10L166.2 17.3C165.4 18.3 164.3 19 163.4 19ZM177.7 9.3C177.9 8.3 177.3 7.8 176.3 7.8 175.2 7.8 174.2 8.4 173.2 9.1 172.7 9.6 172.9 10.4 173.2 10.6 173.5 10.4 173.7 10.3 173.8 10.3 174 10.3 174.2 10.6 174.1 11L171.8 21.5C172.1 21.7 172.6 21.8 173.1 21.8 174.1 21.8 175.1 21.4 175.4 20.1L175.8 18.5C177.2 12.1 178.5 10.9 179.4 10.9 180 10.9 180.2 11.2 180.2 11.6 180.2 11.9 180.1 12.3 179.9 12.4 180.2 12.5 180.5 12.6 180.7 12.6 182.2 12.6 182.9 11.2 182.9 10 182.9 8.9 182.2 7.8 180.9 7.8 179.6 7.8 178.5 8.6 177.4 10.8L177.7 9.3 177.7 9.3Z"/></svg>